<svg version="1.1" xmlns="http://www.w3.org/2000/svg" viewBox="0 0 250 250"><desc>Created with Snap</desc><defs></defs><g transform="matrix(0.0748,0,0,0.0748,26.731,225.6817)"><g transform="matrix(18.555,0,0,18.555,386.0412,-2797.1592)"><g><path d="M78.4,66.5c-5.5,4.8-9.9,15.2-9.9,15.2s-6.9-11.4-12.9-15.3c-9.5-6.1-13.6-6.2-13.6-6.2V65c0,0,7.8,1.2,11.7,4.6   c8.2,7.1,14.8,18.5,14.8,18.5S74.4,75,80.1,70.5C88.1,64.3,95,65,95,65v-4.8C95,60.1,85.1,60.7,78.4,66.5z" fill="#5ca4a9" style=""></path><path d="M42,80c-6.4-3.6-17.8-4.3-17.8-4.3s8.7-10.1,10.5-17C37.5,47.9,36.2,44,36.2,44l-4.6,1.6c0,0,1.3,7.7-0.6,12.4   c-4.1,9.9-13,19.8-13,19.8s14.6,1.3,20.7,5.1c8.6,5.4,10.2,12,10.2,12l4.6-1.6C53.5,93.4,49.7,84.4,42,80z" fill="#5ca4a9" style=""></path><path d="M35.3,36.8c11.3-0.9,14.6-3.4,14.6-3.4l-3-3.8c0,0-6.9,3.7-12.1,3.4c-10.9-0.6-23.3-5.6-23.3-5.6s3.5,14,1.8,20.9   C10.9,58.2,5,61.8,5,61.8l3,3.8c0,0,7.5-6.5,9.1-15.1c1.3-7.1-1.7-18-1.7-18S28,37.4,35.3,36.8z" fill="#5ca4a9" style=""></path><path d="M37.4,17.8c7.3-1.1,16.7-7.4,16.7-7.4s-0.6,13.2,2.4,19.8c4.6,10.2,8,12.5,8,12.5l2.7-4c0,0-5.9-5.2-7.3-10.2   C56.9,18.2,57.7,5,57.7,5s-12.3,7.8-19.5,8.5c-10.2,1-15.6-3.3-15.6-3.3l-2.7,4.1C19.9,14.2,28.6,19.1,37.4,17.8z" fill="#5ca4a9" style=""></path><path d="M65,60.5c0,0,3.1-7.2,7.4-10.1c9-6.1,21.9-9.7,21.9-9.7s-11.5-8.9-14.5-15.4c-4.2-9.1-1.9-15.6-1.9-15.6l-4.8-1.2   c0,0-1.9,9.6,2.2,17.4c3.4,6.4,12.5,13.2,12.5,13.2S75,42.9,69.6,47.8c-8.3,7.6-9.4,11.5-9.4,11.5L65,60.5z" fill="#5ca4a9" style=""></path></g><desc>Created with Snap</desc><defs></defs></g><g><g transform="matrix(1.024,0,0,-1.024,0,0)"><path d="M181 29L176 0L-49 0L-43 29Q-4 45 35 53L430 712L456 712L569 53Q587 49 605 43Q624 38 639 29L634 0L380 0L385 29Q430 46 473 53L443 236L208 236L101 53Q144 47 181 29ZM359 498L237 288L435 288L403 500L401 586L399 586L359 498ZM750 0L654 0L659 29Q704 48 747 53L872 646Q852 650 833 656Q814 663 795 671L802 700L908 700Q945 700 982 703Q1019 706 1075 706Q1115 706 1151 699Q1187 692 1214 677Q1241 662 1257 637Q1273 613 1273 577Q1273 542 1262 510Q1252 479 1230 452Q1208 426 1174 406Q1141 386 1096 374L1096 370Q1119 368 1143 360Q1167 352 1186 336Q1206 321 1218 297Q1230 274 1230 242Q1230 189 1210 144Q1190 99 1150 65Q1111 32 1051 13Q991 -6 911 -6Q876 -6 833 -3Q791 0 750 0ZM930 46Q971 45 1008 57Q1045 69 1073 92Q1101 115 1117 148Q1134 182 1134 225Q1134 258 1122 279Q1111 300 1089 311Q1068 322 1038 326Q1008 330 971 330L895 330L837 54Q850 50 869 47Q888 45 930 46ZM906 382L956 382Q973 382 996 383Q1020 385 1037 387Q1116 415 1146 462Q1177 510 1177 566Q1177 605 1149 629Q1121 654 1055 654Q1023 654 1000 652Q978 651 963 649L906 382ZM1468 50Q1495 50 1522 75Q1549 101 1573 137Q1597 173 1616 212Q1635 251 1646 277L1678 448Q1664 458 1651 462Q1638 466 1615 466Q1569 466 1531 437Q1494 409 1467 364Q1441 319 1426 264Q1412 209 1412 156Q1412 105 1424 77Q1437 50 1468 50ZM1630 196L1626 196Q1613 160 1593 123Q1574 86 1548 56Q1523 26 1492 7Q1461 -12 1426 -12Q1322 -12 1322 139Q1322 209 1342 275Q1362 342 1400 394Q1438 446 1492 477Q1547 509 1616 509Q1641 509 1656 504Q1671 500 1692 491Q1732 512 1776 512L1686 55L1759 55L1759 30Q1739 14 1711 4Q1683 -6 1656 -6Q1627 -6 1614 6Q1602 19 1602 33Q1602 51 1609 92Q1616 133 1630 196ZM2396 671L2402 700L2615 700L2609 671Q2589 657 2565 647Q2541 637 2519 631L2382 -12L2328 -12L2077 539L2056 617L2053 617L2043 539L1943 64Q1961 59 1979 50Q1997 41 2012 29L2006 0L1794 0L1799 29Q1842 55 1889 64L2011 637Q1992 645 1974 654Q1957 663 1943 672L1948 700L2114 700L2329 225L2359 139L2363 139L2379 225L2465 631Q2425 648 2396 671Z" fill="#343333" style=""></path></g></g></g></svg>