<?xml version="1.0" standalone="no"?>
<!DOCTYPE svg PUBLIC "-//W3C//DTD SVG 20010904//EN"
 "http://www.w3.org/TR/2001/REC-SVG-20010904/DTD/svg10.dtd">
<svg version="1.0" xmlns="http://www.w3.org/2000/svg"
 width="200.000000pt" height="200.000000pt" viewBox="0 0 200.000000 200.000000"
 preserveAspectRatio="xMidYMid meet">

<g transform="translate(0.000000,200.000000) scale(0.100000,-0.100000)"
fill="#000000" stroke="none">
<path d="M898 1322 c-39 -22 -78 -65 -78 -86 0 -3 28 11 62 31 46 27 65 33 77
26 9 -6 42 -25 74 -43 58 -33 59 -33 55 -9 -2 17 -23 35 -74 65 l-71 42 -45
-26z"/>
<path d="M1160 1183 l0 -68 -70 -40 c-59 -34 -67 -42 -55 -54 12 -12 25 -8 89
29 l76 44 0 48 c0 43 -21 108 -35 108 -3 0 -5 -30 -5 -67z"/>
<path d="M878 1179 c-15 -8 -18 -24 -18 -94 l0 -84 43 -26 c27 -15 59 -25 83
-25 l39 0 -60 34 -60 34 -5 86 c-5 77 -7 84 -22 75z"/>
<path d="M1294 889 c-10 -17 13 -36 27 -22 12 12 4 33 -11 33 -5 0 -12 -5 -16
-11z"/>
<path d="M660 770 c0 -100 3 -120 15 -120 12 0 15 16 15 81 0 71 2 80 18 77
14 -3 17 -16 20 -81 2 -42 7 -77 13 -77 6 0 9 34 7 88 l-3 87 -32 -1 c-30 -2
-31 -1 -26 32 4 27 2 34 -11 34 -14 0 -16 -16 -16 -120z"/>
<path d="M552 818 c-18 -18 -16 -142 2 -158 23 -18 61 -8 64 18 2 12 -1 22 -7
22 -6 0 -11 -7 -11 -15 0 -24 -27 -18 -34 8 -8 29 -8 81 0 101 8 20 34 21 34
1 0 -8 5 -15 11 -15 6 0 9 10 7 23 -3 25 -45 36 -66 15z"/>
<path d="M800 811 c-14 -28 -13 -124 3 -145 16 -22 55 -18 71 6 14 24 -1 36
-18 13 -17 -24 -36 -11 -36 26 0 26 3 29 30 29 26 0 30 3 30 29 0 16 -3 36 -6
45 -9 23 -61 21 -74 -3z m55 -31 c0 -16 -6 -26 -17 -28 -14 -3 -18 3 -18 28 0
25 4 31 18 28 11 -2 17 -12 17 -28z"/>
<path d="M920 738 c0 -72 3 -88 15 -88 12 0 15 16 15 80 0 47 4 80 10 80 6 0
10 -7 10 -15 0 -17 16 -20 24 -6 13 21 -6 40 -40 39 l-34 -1 0 -89z"/>
<path d="M1020 740 c0 -72 3 -90 15 -90 11 0 15 18 17 77 3 65 6 78 21 81 15
3 17 -6 17 -77 0 -65 3 -81 15 -81 12 0 15 16 15 80 0 73 2 80 20 80 18 0 20
-7 20 -80 0 -64 3 -80 15 -80 12 0 15 15 15 78 0 42 -4 82 -8 89 -9 14 -102
14 -119 0 -9 -6 -13 -6 -13 2 0 6 -7 11 -15 11 -12 0 -15 -17 -15 -90z"/>
<path d="M1300 740 c0 -53 4 -90 10 -90 6 0 10 37 10 90 0 53 -4 90 -10 90 -6
0 -10 -37 -10 -90z"/>
<path d="M1370 811 c-5 -11 -10 -43 -10 -71 0 -28 5 -60 10 -71 12 -22 52 -25
68 -6 19 22 25 93 12 131 -10 30 -16 36 -40 36 -19 0 -33 -7 -40 -19z m55 -71
c0 -51 -3 -65 -15 -65 -12 0 -16 16 -18 68 -3 62 -1 68 15 65 15 -3 18 -14 18
-68z"/>
<path d="M1222 673 c2 -10 10 -18 18 -18 8 0 16 8 18 18 2 12 -3 17 -18 17
-15 0 -20 -5 -18 -17z"/>
</g>
</svg>
