<svg version="1.1" xmlns="http://www.w3.org/2000/svg" viewBox="0 0 250 250"><desc>Created with Snap</desc><defs></defs><g transform="matrix(0.0559,0,0,0.0559,12.5945,146.8686)"><g><g transform="matrix(1.024,0,0,-1.024,0,0)"><path d="M80 0L80 505Q112 513 165 522Q218 531 287 531Q349 531 390 513Q431 496 455 464Q480 433 490 389Q500 345 500 292L500 0L407 0L407 272Q407 320 400 354Q394 388 379 409Q364 430 339 439Q314 449 277 449Q262 449 246 448Q230 447 215 445Q201 444 189 442Q178 440 173 439L173 0L80 0ZM625 259Q625 328 645 379Q665 431 698 465Q731 499 774 516Q817 533 862 533Q967 533 1023 467Q1079 402 1079 268Q1079 262 1079 252Q1079 243 1078 235L722 235Q728 154 769 112Q810 70 897 70Q946 70 979 78Q1013 87 1030 95L1043 17Q1026 8 983 -2Q941 -12 887 -12Q819 -12 769 8Q720 29 688 65Q656 101 640 150Q625 200 625 259ZM724 310L982 310Q983 373 950 413Q918 454 861 454Q829 454 804 441Q780 429 763 409Q746 389 736 363Q727 337 724 310ZM1300 681L1300 520L1497 520L1497 442L1300 442L1300 202Q1300 163 1306 137Q1312 112 1324 97Q1336 83 1354 77Q1372 71 1396 71Q1438 71 1463 80Q1489 90 1499 94L1517 17Q1503 10 1468 -1Q1433 -11 1388 -11Q1335 -11 1300 2Q1266 16 1245 43Q1224 70 1215 109Q1207 149 1207 201L1207 665L1300 681ZM1818 776Q1859 776 1888 770Q1918 764 1930 759L1913 679Q1901 685 1879 690Q1857 696 1825 696Q1760 696 1734 660Q1708 625 1708 565L1708 520L1908 520L1908 442L1708 442L1708 0L1615 0L1615 567Q1615 667 1664 721Q1713 776 1818 776ZM1972 259Q1972 328 1992 379Q2012 431 2045 465Q2078 499 2121 516Q2164 533 2209 533Q2314 533 2370 467Q2426 402 2426 268Q2426 262 2426 252Q2426 243 2425 235L2069 235Q2075 154 2116 112Q2157 70 2244 70Q2293 70 2326 78Q2360 87 2377 95L2390 17Q2373 8 2330 -2Q2288 -12 2234 -12Q2166 -12 2116 8Q2067 29 2035 65Q2003 101 1987 150Q1972 200 1972 259ZM2071 310L2329 310Q2330 373 2297 413Q2265 454 2208 454Q2176 454 2151 441Q2127 429 2110 409Q2093 389 2083 363Q2074 337 2071 310ZM2647 681L2647 520L2844 520L2844 442L2647 442L2647 202Q2647 163 2653 137Q2659 112 2671 97Q2683 83 2701 77Q2719 71 2743 71Q2785 71 2810 80Q2836 90 2846 94L2864 17Q2850 10 2815 -1Q2780 -11 2735 -11Q2682 -11 2647 2Q2613 16 2592 43Q2571 70 2562 109Q2554 149 2554 201L2554 665L2647 681ZM3188 -12Q3125 -12 3077 8Q3030 28 2997 64Q2965 100 2949 149Q2933 199 2933 259Q2933 319 2950 369Q2968 419 3000 455Q3032 492 3078 512Q3125 533 3182 533Q3217 533 3252 527Q3287 521 3319 508L3298 429Q3277 439 3249 445Q3222 451 3191 451Q3113 451 3071 402Q3030 353 3030 259Q3030 217 3039 182Q3049 147 3069 122Q3090 97 3122 83Q3154 70 3200 70Q3237 70 3267 77Q3297 84 3314 92L3327 14Q3319 9 3304 4Q3289 0 3270 -4Q3251 -7 3229 -10Q3208 -12 3188 -12ZM3520 0L3427 0L3427 760L3520 776L3520 510Q3546 520 3575 525Q3605 531 3634 531Q3696 531 3737 513Q3778 496 3802 464Q3827 433 3837 389Q3847 345 3847 292L3847 0L3754 0L3754 272Q3754 320 3747 354Q3741 388 3726 409Q3711 430 3686 439Q3661 449 3624 449Q3609 449 3593 447Q3577 445 3562 442Q3548 440 3536 437Q3525 434 3520 432L3520 0Z" fill="#76528b" style=""></path></g></g></g></svg>